<?xml version="1.0" encoding="utf-8"?>
<!-- Generator: Adobe Illustrator 21.1.0, SVG Export Plug-In . SVG Version: 6.00 Build 0)  -->
<svg version="1.1" id="Layer_3" xmlns="http://www.w3.org/2000/svg" xmlns:xlink="http://www.w3.org/1999/xlink" x="0px" y="0px"
	 viewBox="0 0 500 500" style="enable-background:new 0 0 500 500;" xml:space="preserve">
<style type="text/css">
	.st0{fill:none;stroke:#FFFFFF;stroke-width:3.6;stroke-miterlimit:10;}
</style>
<title>Artboard 1</title>
<path class="st0" d="M240.5,262.1c-8.3-9.4-24.5-25.2-40.6-23c-34.2,4.6-49.9,87.9-32.5,95.6c6.9,3,23.5-3.6,69-54.9
	c5.1,22.1,13.1,47.6,23.4,47.8c4.9,0.1,9.1-5.6,18.3-24.8c24.2-50.5,40.3-84.2,22.3-101.8c-2.1-2.1-6.3-6.2-10.1-5.3
	c-14.6,3.2-6.9,73.2,3,137.2c4.2-14.5,18.7-61.9,33.5-61.1c14.5,0.8,22.8,47.5,23.4,50.4c3,17.2,4.8,27.9,0,40.7
	c-13,34.6-59.5,45.5-73.1,48.7c-7.5,1.8-33.2,7.8-38.6,0c-3.4-4.9,1.8-14.8,10.1-19.5c7.3-4.1,17.4-4.7,25.4,0
	c8.3,4.9,13.2,16.6,9.1,21.8c-10.3,13.1-87.5,0.1-127.7-44.7c-21.6-24-25.1-54.5-28.3-75.3c-2.8-18.8-2.1-33.1-1.3-48
	c0.9-17.4,3.9-47.6,16.2-86c11.6-36,25.4-79,41.3-79c18.5,0,32.6,66.5,36.3,85c7.1-1.6,14.3-2.7,21.5-3.3
	c13.6-1.2,27.4-0.8,40.9,1.4c13.2-54.1,26.2-81.1,39-81c18.1,0.1,35.8,54.8,53.1,164.2c0.9,11.9,1.2,23.9,0.8,35.8
	c-0.6,21.9-3.3,43.6-8,65"/>
</svg>
