<?xml version="1.0" encoding="utf-8"?>
<!-- Generator: Adobe Illustrator 21.1.0, SVG Export Plug-In . SVG Version: 6.00 Build 0)  -->
<svg version="1.1" id="Layer_1" xmlns="http://www.w3.org/2000/svg" xmlns:xlink="http://www.w3.org/1999/xlink" x="0px" y="0px"
	 viewBox="0 0 1366 768" style="enable-background:new 0 0 1366 768;" xml:space="preserve">
<style type="text/css">
	.st0{display:none;fill:#FFFFFF;}
	.st1{fill:#FFFFFF;}
</style>
<title>Artboard 1</title>
<path class="st0" d="M702.8,384h0.7H702.8z"/>
<path class="st0" d="M702.7,383.7l1,0.6L702.7,383.7z"/>
<path class="st0" d="M703.5,384l-0.7-0.1L703.5,384z"/>
<rect x="690.7" y="0.5" class="st0" width="25" height="767"/>
<polygon class="st1" points="704.2,51.2 702.9,48.7 701.3,48.4 699.5,46 699.8,43.1 700.2,40.2 698.5,37.5 698.3,34.7 698.5,31.9 
	696.9,30.2 696.5,27 694.6,24.4 693.4,22.1 692.6,24.7 692.5,23.1 691.2,20.3 691.9,17.3 692.1,14.3 691.6,11.8 691.4,9 691.8,6.5 
	682,6.5 682,761.5 724.3,761.5 724.4,759.8 724,757 723,754.3 723.7,751.9 721.6,750.4 722.6,747.3 721.8,744.5 721.4,741.5 
	722.1,738.8 720.3,737 719.6,734.8 719.2,732.6 719.4,729.8 719.6,727.1 719.4,724.3 718.5,721.6 718.7,721 718.4,716.7 
	717.5,713.5 717.4,710.4 718,708.7 716.2,706 717.7,703.6 718.6,701.2 719.2,699 719.3,696.1 719.5,693.5 720.1,691 718.4,688.6 
	719.1,688.6 718.4,685.3 716.9,683.5 717.5,686.1 717.2,685.3 716.1,682.7 717.9,680.1 716.5,678.5 717.3,677 717.7,673.2 
	716.1,670.7 715.3,668.4 715.3,665.7 713.9,663.8 714.3,661 714.6,658.1 713.1,655.5 712.4,651.9 710.4,649.1 709.5,646.6 
	709,644.2 709,642.3 707.6,638.8 707.6,636.7 705.9,635.6 705.1,632.9 704.5,630.8 703.4,628.7 703.4,626.2 701.6,625 700.2,624.4 
	698.9,621.3 697.8,618.5 697.2,615.3 695.4,616 695.6,612.7 694.1,609.8 695.2,606.2 694.4,603 693.2,599.3 692.5,603.2 
	691.6,600.4 689.9,598 691.1,595 690,592.3 689.9,591.4 690.2,588.2 689.6,585.2 689.1,582.6 687.9,579.8 689.5,577.1 687.8,574.4 
	689.3,573.2 688.7,570.7 689.1,569.1 689.6,566 688.7,563.7 688,561.4 689.8,559.2 688.5,556.3 688.7,553.4 688.3,550.7 
	688.4,549.1 690.2,546.6 689.7,543.9 689.9,541.2 689.6,537.8 688.7,534.5 689.1,534.6 688.6,532 688.4,531.1 688.1,530.3 
	688.3,530.9 687.8,528.8 688.8,525.7 688.4,522.5 689.6,519.8 687.9,517.1 688.7,515.1 689.4,510.7 690.2,508.4 690.9,505.9 
	691.7,503.5 690.9,500.9 690.9,498.4 692.1,495.9 692.2,492.8 691.9,489 691.9,486.9 692.1,483.5 691.7,480.8 690.6,478 693,479.5 
	691.9,477.2 692.9,475.1 694.8,472.8 694.4,469.6 696.7,466.9 699.2,465.7 698.1,462.4 698.7,460 700.5,457.8 700.4,455 
	700.6,452.3 701,449.8 701.7,447.2 703.4,444.8 702.7,441.9 703.9,439.5 704.1,436.8 704.3,433.6 706,431.2 707.3,428.4 
	707.5,425.4 706.9,422 706.7,420.8 705.4,417.9 704.6,415.9 704.8,411.9 702.6,409 701.7,405.6 701.2,402.2 701.9,398.8 
	702.5,395.6 704.1,392.7 705.7,389.8 707.8,387.1 710.1,384.7 711.9,382.8 712.3,380.3 712.6,378 714,377 712.9,373.9 714,370.9 
	713.7,369.5 714.5,366.4 715.1,363.9 717.4,361.3 716.8,357.6 717.3,357.9 717.3,354.9 717.7,352 716.5,349.3 716.4,346.5 
	717.3,343.6 716.2,340.8 715.3,338.1 714.9,335.5 714.7,332.5 715.3,329.4 714.4,326.4 713.2,327.3 714.5,323.9 712.7,320.7 
	713.2,317.4 713.2,314.6 712.9,312.5 712.7,310 714.2,307.5 712.6,304.9 712.6,302.3 712.6,299.1 711,296.1 711.4,293.3 710.2,291 
	709.8,287.3 707.7,285.4 708,282.5 704.9,281.3 705,278.2 704.6,275.9 702.9,273.3 700.9,272 699.7,269.8 699.5,267.2 697.4,265.7 
	697,261.9 695.7,258.4 696.4,256.5 695.2,254.2 695.9,251.3 694.5,248.6 695.3,245.8 696.3,244 695.4,240 695,236.8 696.1,234.2 
	694.6,231.4 695.2,228.6 695.2,225.7 695.4,222.8 695.2,224.4 695.1,224.2 694.2,220.7 694.1,217 693.4,215 692.9,212.5 694,210 
	693.6,207.6 694.1,208.1 695.1,205.4 694.3,202.6 695.3,201.6 696.6,199.3 697.1,196.3 698.6,194.2 698.5,191.5 700,187.8 
	699.5,186.6 697.6,185.7 699,182 697.2,181.5 698.1,180.3 698.2,177.5 696.6,174.6 697.3,171.7 695.7,169.4 694.6,167 693.8,164.4 
	693.5,161.5 692.2,159.1 694,156.5 692.4,154.1 693.2,151.7 693,148.5 693.4,145.1 691.1,142.5 691.2,139.6 688.7,137.8 688.7,135 
	687.1,132.6 688.1,129.6 687.3,127.4 687.2,124.6 688.4,121.8 690.3,120.1 691.5,117.6 691.2,114.9 691.4,112.5 690.6,109.8 
	691.8,107.5 692.1,104.9 693.2,103.3 693.8,101.2 696.6,99.1 697.7,95.3 698.4,92.4 697.8,89.5 697.6,86 697.4,82.5 698.8,80.1 
	699,77.6 700,74.3 698.7,70.9 700.7,67.7 700.5,64.4 700.9,65.6 702.3,62.6 701.4,59.7 702.8,57 702.6,56.6 702.5,56.8 702.6,56.5 
	701.9,54 703.9,53.9 "/>
</svg>
