<?xml version="1.0" encoding="utf-8"?>
<!-- Generator: Adobe Illustrator 21.1.0, SVG Export Plug-In . SVG Version: 6.00 Build 0)  -->
<svg version="1.1" id="Layer_2" xmlns="http://www.w3.org/2000/svg" xmlns:xlink="http://www.w3.org/1999/xlink" x="0px" y="0px"
	 viewBox="0 0 1366 768" style="enable-background:new 0 0 1366 768;" xml:space="preserve">
<style type="text/css">
	.st0{fill:#FFFFFF;}
</style>
<path class="st0" d="M681.4,1.4h-50.3L631.1,2l0.6,2.3l-0.5,2.3l-0.3,2.2l-1.1,2.1l-0.1,3.5l0.7,3.4l0.3,3.3l0.8,3.2l0.3,3.3
	l-0.7,3.3l0.5,3.8l0.4,4l0.1,2.1l1,2.5l-0.1,2.6l-0.2,3.4l-0.6,3.6l0.7,2.4l1,2l0.2,2.5l0.4,2.3l0.5,3.7l-0.6,3.7l0.4,3.9l0.7,3.5
	l-0.3,2.4l-1.4,2.4l0.2,2.5l1.4,2.5l-0.3,2.9l-0.9,2.9l0.7,3.7l-0.2,2.5l1.4,2.6l-0.5,0.3l0.1,2.4l0.6,2.4l0.2,2.7l0.6,2.3l1.4,1.4
	l0.3,3l2.1,3.4l0.2-0.1l-0.7,3.4l-0.5,2.9l0.8-2.1l1.7,3.8l1.4,0.3l-0.4,2.8l-0.1,1.4v2.3l0.2,3.9l-0.2,0.5l-0.4,3l-1.9,3.2l1.7,2.9
	l-0.8,1.4l-0.3,4.3l0.9,0.8l-1.1,3.1v3.2l1.5,1l-0.8,3.3l-0.7,3.4l-0.9,3.4l0.8,3.5l-0.8,3.5l-0.5,3.2l-0.3,2l0,0.4l-0.7,2.8l0.5,4
	l-2,3.4l0.9,0.9l0.3,2.7l-1.2,2.3l0.9,2.4l-0.8,3.6l0.6,2.7l0.2,2.7l-0.2,3.3l-0.8-0.3l-0.4,2.4l0.4,2.4l-0.4,2.5l1,2.5l0.6,2.3
	l-0.8,4l-0.2,2.5l-0.4,2.6l-0.9,3.5l1.5,2.9l-0.2,2.7l-1.5,2.6l0.8,3.1l0.5-0.5l-0.6,3.4l1.9,3.2l-0.3,3.4l-0.8,3.4l-0.6,3.7
	l0.3,3.7l0.7-1l0.6,3.4l-0.3,0.2l0.7,2.7l1.4,3.1l0.6,3.4l1.5,2.9l-0.2,3.2l0.4,3.2l0.4-3.1l0.8,2.9l2.2,3.4l0.6,3.6l-0.4,3.6
	l1.3-0.4l0.5,2.8l0.4,2.9l0.6,2.8v2.9l0.1,2.9l1.3,2.8l-1.1,2.9l0.8,2.9l0,2.9l-0.2,2.9v3.6l-1,3.6v3.6l0.4,3.6l0.1,3.4l0.4,3.4
	l0.6,3.4l-1.6,3.2l-0.2,3.3l0.5,2.5l1,2.6l-1.5,2.5l0.2,3.1l0.6,3.1l-0.8,3l-0.6,2.6l-0.5,2.7l0.9,2.8l-0.6,2.7L647,392l0.6,3.4
	l-1.5,2.6l1.3-3.7l-1.7-0.8l-0.3,1.7l0.1,2.7l-0.7,2.7v2.2l-0.3,2.8l-0.5,3.2l0.8,3.3l-0.8,2.9l-0.4,2.9l1,3l-0.6,3l-0.7,2.5
	l-0.7,3.1l-0.6,0.3l-0.1,2.9l-0.2,3.1l1.6,3.1L642,442l-1,2.7l0.2,2.9l0.4,2.9l-0.3,2.1l-0.8,3.7l0.3,3.7l-0.2,3.2l-0.8,2.9
	l-0.3,1.2l1,2.7l-1,2.6l0.5,2.7l-0.6-0.4l0.1,2.8l0.5,2.8l-0.9,2.5l-0.9-2.5l0.2,1.5l-1.3,0.1l1,2.9l-0.2,1.9l-0.1-1.1l-0.6,3.4
	l-0.5,3.7l-0.9,3.7l-0.5,2.3l0.9-1.8l-1,3.1l0.1,1.5l-0.2,2.6l0.8,2.9l-1.5,2.8l0.4,3l-0.9,3.1l0.9,3.1l-0.2,3l-0.5-0.3l0.3,3.3
	l-0.1,3.3l-0.7,2.8l-1.4,2.8l0.2,2.8l0.1,2.8l0.7,3.4l-0.2,2.3l-0.1-1.7v3l0.1,0.2l0.3,2.9l-0.6,2.7l0.6,0.4l-0.2,2.9l-0.6,1.7
	l-0.1-0.1l-0.1-3.4l-0.2,2.7l0.1,1.5l-0.2,0.4v2.9l0.9-0.5l0.5,1.3l-0.6,3.1l-0.4,3.1l-0.4,0.5l1.3,3.8l0.6,3.8l-1.6,0.8l0.2,3.1
	l0.3,3.1l-0.1,1.5l0.7-0.8l-1.5,3.3l1,3.3l-1.1,2.8l1.4,3.6l-1.2,0.5l-0.9,2.4l-0.1,2.6l-0.1,1.8l1.5,3.7l-1.1,3.6l-0.7,1.8l1.3,2.9
	l-0.2,2.2l-0.3,3.2l0.2,3.2l-0.1,3.2l0.4,3.2l-0.1,3.1l-1.2,3.4l1.8,0.1l1.4,3.7l-1.4,3.8l0.8,2.5l0.5,2.6l-0.2,2.9l-0.5,2.2
	l0.5,2.4l-0.1,1.6l0.1,2.5l0.7,2.1l0.1,0.4v2.7l0.3,2.1l1.4,2.4l-0.3,1.7l0,2.1l2.1,2l0.2,1.4l-0.5,2.1l1.4,0.9l0.1,2.4l-1.1,2.9
	l0.9,4.5l1.5,2.2l-1.2,2.9l1.7,1.4l-0.3,2.2l-0.5,2.9l1.3,2.7l-1,2.7l1.3,2.9l-0.7,2.3h0.8l-1.4,2.6l0.5,2.6l0.7,4.4l-0.2,2.5
	l-1,2.5l1,1l-0.8,2.6l0.7,2.5l-1.4,2.6l1,2l-0.2-0.9l0.5,2.1l-1.4,2.3l0.4,2.3l0.1,1.5l-0.2,4l0.5,0.4l-0.2,0.4l-0.1,3.3v1.9l1,2.4
	l-1.1,2.4l1.2,0.2l-1.2,3.3l0.4,3.7h40.8V1.4z M633.1,546.1l-0.1-0.3L633.1,546.1L633.1,546.1z M633.3,552.9l0.1-4.4l-0.1-0.3
	l0.6,1.7L633.3,552.9z"/>
</svg>
