<?xml version="1.0" encoding="utf-8"?>
<!-- Generator: Adobe Illustrator 21.1.0, SVG Export Plug-In . SVG Version: 6.00 Build 0)  -->
<svg version="1.1" id="Layer_1" xmlns="http://www.w3.org/2000/svg" xmlns:xlink="http://www.w3.org/1999/xlink" x="0px" y="0px"
	 viewBox="0 0 1366 768" style="enable-background:new 0 0 1366 768;" xml:space="preserve">
<style type="text/css">
	.st0{display:none;fill:#FFFFFF;}
	.st1{fill:#FFFFFF;}
</style>
<title>Artboard 1</title>
<path class="st0" d="M682.7,384h0.7H682.7z"/>
<path class="st0" d="M682.5,383.7l1,0.6L682.5,383.7z"/>
<path class="st0" d="M683.3,384l-0.7-0.1L683.3,384z"/>
<rect x="670.5" y="0.5" class="st0" width="25" height="767"/>
<polygon class="st1" points="684,51.2 682.7,48.7 681.1,48.4 679.3,46 679.6,43.1 680,40.2 678.3,37.5 678.1,34.7 678.3,31.9 
	676.7,30.2 676.3,27 674.4,24.4 673.2,22.1 672.4,24.7 672.3,23.1 671,20.3 671.7,17.3 671.9,14.3 671.4,11.8 671.2,9 671.6,6.5 
	661.8,6.5 661.8,761.5 704.1,761.5 704.2,759.8 703.8,757 702.8,754.3 703.5,751.9 701.4,750.4 702.4,747.3 701.6,744.5 
	701.2,741.5 701.9,738.8 700.1,737 699.4,734.8 699,732.6 699.2,729.8 699.4,727.1 699.2,724.3 698.3,721.6 698.5,721 698.2,716.7 
	697.3,713.5 697.2,710.4 697.8,708.7 696,706 697.5,703.6 698.4,701.2 699,699 699.1,696.1 699.3,693.5 699.9,691 698.2,688.6 
	698.9,688.6 698.2,685.3 696.7,683.5 697.3,686.1 697,685.3 695.9,682.7 697.7,680.1 696.3,678.5 697.1,677 697.5,673.2 
	695.9,670.7 695.1,668.4 695.1,665.7 693.7,663.8 694.1,661 694.4,658.1 692.9,655.5 692.2,651.9 690.2,649.1 689.3,646.6 
	688.8,644.2 688.8,642.3 687.4,638.8 687.4,636.7 685.7,635.6 684.9,632.9 684.3,630.8 683.2,628.7 683.2,626.2 681.4,625 
	680,624.4 678.7,621.3 677.6,618.5 677,615.3 675.2,616 675.4,612.7 673.9,609.8 675,606.2 674.2,603 673,599.3 672.3,603.2 
	671.4,600.4 669.7,598 670.9,595 669.8,592.3 669.7,591.4 670,588.2 669.4,585.2 668.9,582.6 667.7,579.8 669.3,577.1 667.6,574.4 
	669.1,573.2 668.5,570.7 668.9,569.1 669.4,566 668.5,563.7 667.8,561.4 669.6,559.2 668.3,556.3 668.5,553.4 668.1,550.7 
	668.2,549.1 670,546.6 669.5,543.9 669.7,541.2 669.4,537.8 668.5,534.5 668.9,534.6 668.4,532 668.2,531.1 667.9,530.3 
	668.1,530.9 667.6,528.8 668.6,525.7 668.2,522.5 669.4,519.8 667.7,517.1 668.5,515.1 669.2,510.7 670,508.4 670.7,505.9 
	671.5,503.5 670.7,500.9 670.7,498.4 671.9,495.9 672,492.8 671.7,489 671.7,486.9 671.9,483.5 671.5,480.8 670.4,478 672.8,479.5 
	671.7,477.2 672.7,475.1 674.6,472.8 674.2,469.6 676.5,466.9 679,465.7 677.9,462.4 678.5,460 680.3,457.8 680.2,455 680.4,452.3 
	680.8,449.8 681.5,447.2 683.2,444.8 682.5,441.9 683.7,439.5 683.9,436.8 684.1,433.6 685.8,431.2 687.1,428.4 687.3,425.4 
	686.7,422 686.5,420.8 685.2,417.9 684.4,415.9 684.6,411.9 682.4,409 681.5,405.6 681,402.2 681.7,398.8 682.3,395.6 683.9,392.7 
	685.5,389.8 687.6,387.1 689.9,384.7 691.7,382.8 692.1,380.3 692.4,378 693.8,377 692.7,373.9 693.8,370.9 693.5,369.5 
	694.3,366.4 694.9,363.9 697.2,361.3 696.6,357.6 697.1,357.9 697.1,354.9 697.5,352 696.3,349.3 696.2,346.5 697.1,343.6 
	696,340.8 695.1,338.1 694.7,335.5 694.5,332.5 695.1,329.4 694.2,326.4 693,327.3 694.3,323.9 692.5,320.7 693,317.4 693,314.6 
	692.7,312.5 692.5,310 694,307.5 692.4,304.9 692.4,302.3 692.4,299.1 690.8,296.1 691.2,293.3 690,291 689.6,287.3 687.5,285.4 
	687.8,282.5 684.7,281.3 684.8,278.2 684.4,275.9 682.7,273.3 680.7,272 679.5,269.8 679.3,267.2 677.2,265.7 676.8,261.9 
	675.5,258.4 676.2,256.5 675,254.2 675.7,251.3 674.3,248.6 675.1,245.8 676.1,244 675.2,240 674.8,236.8 675.9,234.2 674.4,231.4 
	675,228.6 675,225.7 675.2,222.8 675,224.4 674.9,224.2 674,220.7 673.9,217 673.2,215 672.7,212.5 673.8,210 673.4,207.6 
	673.9,208.1 674.9,205.4 674.1,202.6 675.1,201.6 676.4,199.3 676.9,196.3 678.4,194.2 678.3,191.5 679.8,187.8 679.3,186.6 
	677.4,185.7 678.8,182 677,181.5 677.9,180.3 678,177.5 676.4,174.6 677.1,171.7 675.5,169.4 674.4,167 673.6,164.4 673.3,161.5 
	672,159.1 673.8,156.5 672.2,154.1 673,151.7 672.8,148.5 673.2,145.1 670.9,142.5 671,139.6 668.5,137.8 668.5,135 666.9,132.6 
	667.9,129.6 667.1,127.4 667,124.6 668.2,121.8 670.1,120.1 671.3,117.6 671,114.9 671.2,112.5 670.4,109.8 671.6,107.5 
	671.9,104.9 673,103.3 673.6,101.2 676.4,99.1 677.5,95.3 678.2,92.4 677.6,89.5 677.4,86 677.2,82.5 678.6,80.1 678.8,77.6 
	679.8,74.3 678.5,70.9 680.5,67.7 680.3,64.4 680.7,65.6 682.1,62.6 681.2,59.7 682.6,57 682.4,56.6 682.3,56.8 682.4,56.5 
	681.7,54 683.7,53.9 "/>
</svg>
