<?xml version="1.0" encoding="utf-8"?>
<!-- Generator: Adobe Illustrator 21.1.0, SVG Export Plug-In . SVG Version: 6.00 Build 0)  -->
<svg version="1.1" id="Layer_1" xmlns="http://www.w3.org/2000/svg" xmlns:xlink="http://www.w3.org/1999/xlink" x="0px" y="0px"
	 viewBox="0 0 1366 768" style="enable-background:new 0 0 1366 768;" xml:space="preserve">
<style type="text/css">
	.st0{display:none;fill:#FFFFFF;}
	.st1{fill:#FFFFFF;}
</style>
<title>Artboard 1</title>
<path class="st0" d="M659.3,58.4h0.7H659.3z"/>
<path class="st0" d="M655.5,189.3l1,0.6L655.5,189.3z"/>
<path class="st0" d="M674.5,678.4l-0.7-0.1L674.5,678.4z"/>
<rect x="601" class="st0" width="25" height="767"/>
<polygon class="st1" points="660.8,52.7 659.5,50.2 657.9,49.9 656.1,47.5 656.4,44.6 656.8,41.7 655.1,39 654.9,36.2 655.1,33.4 
	653.5,31.7 653.1,28.5 651.2,25.9 650,23.6 649.2,26.2 649.1,24.6 647.8,21.8 648.5,18.8 648.7,15.8 648.2,13.3 648,10.5 648.4,8 
	638.6,8 638.6,763 680.9,763 681,761.3 680.6,758.5 679.6,755.8 680.3,753.4 678.2,751.9 679.2,748.8 678.4,746 678,743 
	678.7,740.3 676.9,738.5 676.2,736.3 675.8,734.1 676,731.3 676.2,728.6 676,725.8 675.1,723.1 675.3,722.5 675,718.2 674.1,715 
	674,711.9 674.6,710.2 672.8,707.5 674.3,705.1 675.2,702.7 675.8,700.5 675.9,697.6 676.1,695 676.7,692.5 675,690.1 675.7,690.1 
	675,686.8 673.5,685 674.1,687.6 673.8,686.8 672.7,684.2 674.5,681.6 673.1,680 673.9,678.5 674.3,674.7 672.7,672.2 671.9,669.9 
	671.9,667.2 670.5,665.3 670.9,662.5 671.2,659.6 669.7,657 669,653.4 667,650.6 666.1,648.1 665.6,645.7 665.6,643.8 664.2,640.3 
	664.2,638.2 662.5,637.1 661.7,634.4 661.1,632.3 660,630.2 660,627.7 658.2,626.5 656.8,625.9 655.5,622.8 654.4,620 653.8,616.8 
	652,617.5 652.2,614.2 650.7,611.3 651.8,607.7 651,604.5 649.8,600.8 649.1,604.7 648.2,601.9 646.5,599.5 647.7,596.5 
	646.6,593.8 646.5,592.9 646.8,589.7 646.2,586.7 645.7,584.1 644.5,581.3 646.1,578.6 644.4,575.9 645.9,574.7 645.3,572.2 
	645.7,570.6 646.2,567.5 645.3,565.2 644.6,562.9 646.4,560.7 645.1,557.8 645.3,554.9 644.9,552.2 645,550.6 646.8,548.1 
	646.3,545.4 646.5,542.7 646.2,539.3 645.3,536 645.7,536.1 645.2,533.5 645,532.6 644.7,531.8 644.9,532.4 644.4,530.3 
	645.4,527.2 645,524 646.2,521.3 644.5,518.6 645.3,516.6 646,512.2 646.8,509.9 647.5,507.4 648.3,505 647.5,502.4 647.5,499.9 
	648.7,497.4 648.8,494.3 648.5,490.5 648.5,488.4 648.7,485 648.3,482.3 647.2,479.5 649.6,481 648.5,478.7 649.5,476.6 
	651.4,474.3 651,471.1 653.3,468.4 655.8,467.2 654.7,463.9 655.3,461.5 657.1,459.3 657,456.5 657.2,453.8 657.6,451.3 
	658.3,448.7 660,446.3 659.3,443.4 660.5,441 660.7,438.3 660.9,435.1 662.6,432.7 663.9,429.9 664.1,426.9 663.5,423.5 
	663.3,422.3 662,419.4 661.2,417.4 661.4,413.4 659.2,410.5 658.3,407.1 657.8,403.7 658.5,400.3 659.1,397.1 660.7,394.2 
	662.3,391.3 664.4,388.6 666.7,386.2 668.5,384.3 668.9,381.8 669.2,379.5 670.6,378.5 669.5,375.4 670.6,372.4 670.3,371 
	671.1,367.9 671.7,365.4 674,362.8 673.4,359.1 673.9,359.4 673.9,356.4 674.3,353.5 673.1,350.8 673,348 673.9,345.1 672.8,342.3 
	671.9,339.6 671.5,337 671.3,334 671.9,330.9 671,327.9 669.8,328.8 671.1,325.4 669.3,322.2 669.8,318.9 669.8,316.1 669.5,314 
	669.3,311.5 670.8,309 669.2,306.4 669.2,303.8 669.2,300.6 667.6,297.6 668,294.8 666.8,292.5 666.4,288.8 664.3,286.9 664.6,284 
	661.5,282.8 661.6,279.7 661.2,277.4 659.5,274.8 657.5,273.5 656.3,271.3 656.1,268.7 654,267.2 653.6,263.4 652.3,259.9 653,258 
	651.8,255.7 652.5,252.8 651.1,250.1 651.9,247.3 652.9,245.5 652,241.5 651.6,238.3 652.7,235.7 651.2,232.9 651.8,230.1 
	651.8,227.2 652,224.3 651.8,225.9 651.7,225.7 650.8,222.2 650.7,218.5 650,216.5 649.5,214 650.6,211.5 650.2,209.1 650.7,209.6 
	651.7,206.9 650.9,204.1 651.9,203.1 653.2,200.8 653.7,197.8 655.2,195.7 655.1,193 656.6,189.3 656.1,188.1 654.2,187.2 
	655.6,183.5 653.8,183 654.7,181.8 654.8,179 653.2,176.1 653.9,173.2 652.3,170.9 651.2,168.5 650.4,165.9 650.1,163 648.8,160.6 
	650.6,158 649,155.6 649.8,153.2 649.6,150 650,146.6 647.7,144 647.8,141.1 645.3,139.3 645.3,136.5 643.7,134.1 644.7,131.1 
	643.9,128.9 643.8,126.1 645,123.3 646.9,121.6 648.1,119.1 647.8,116.4 648,114 647.2,111.3 648.4,109 648.7,106.4 649.8,104.8 
	650.4,102.7 653.2,100.6 654.3,96.8 655,93.9 654.4,91 654.2,87.5 654,84 655.4,81.6 655.6,79.1 656.6,75.8 655.3,72.4 657.3,69.2 
	657.1,65.9 657.5,67.1 658.9,64.1 658,61.2 659.4,58.5 659.2,58.1 659.1,58.3 659.2,58 658.5,55.5 660.5,55.4 "/>
</svg>
