<?xml version="1.0" encoding="utf-8"?>
<!-- Generator: Adobe Illustrator 21.1.0, SVG Export Plug-In . SVG Version: 6.00 Build 0)  -->
<svg version="1.1" id="Layer_1" xmlns="http://www.w3.org/2000/svg" xmlns:xlink="http://www.w3.org/1999/xlink" x="0px" y="0px"
	 viewBox="0 0 1366 768" style="enable-background:new 0 0 1366 768;" xml:space="preserve">
<style type="text/css">
	.st0{display:none;fill:#FFFFFF;}
	.st1{fill:#FFFFFF;}
</style>
<title>Artboard 1</title>
<path class="st0" d="M704.7,384h0.7H704.7z"/>
<path class="st0" d="M704.5,383.7l1,0.6L704.5,383.7z"/>
<path class="st0" d="M705.3,384l-0.7-0.1L705.3,384z"/>
<rect x="692.5" y="0.5" class="st0" width="25" height="767"/>
<polygon class="st1" points="706,51.2 704.7,48.7 703.1,48.4 701.3,46 701.6,43.1 702,40.2 700.3,37.5 700.1,34.7 700.3,31.9 
	698.7,30.2 698.3,27 696.4,24.4 695.2,22.1 694.4,24.7 694.3,23.1 693,20.3 693.7,17.3 693.9,14.3 693.4,11.8 693.2,9 693.6,6.5 
	683.8,6.5 683.8,761.5 726.1,761.5 726.2,759.8 725.8,757 724.8,754.3 725.5,751.9 723.4,750.4 724.4,747.3 723.6,744.5 
	723.2,741.5 723.9,738.8 722.1,737 721.4,734.8 721,732.6 721.2,729.8 721.4,727.1 721.2,724.3 720.3,721.6 720.5,721 720.2,716.7 
	719.3,713.5 719.2,710.4 719.8,708.7 718,706 719.5,703.6 720.4,701.2 721,699 721.1,696.1 721.3,693.5 721.9,691 720.2,688.6 
	720.9,688.6 720.2,685.3 718.7,683.5 719.3,686.1 719,685.3 717.9,682.7 719.7,680.1 718.3,678.5 719.1,677 719.5,673.2 
	717.9,670.7 717.1,668.4 717.1,665.7 715.7,663.8 716.1,661 716.4,658.1 714.9,655.5 714.2,651.9 712.2,649.1 711.3,646.6 
	710.8,644.2 710.8,642.3 709.4,638.8 709.4,636.7 707.7,635.6 706.9,632.9 706.3,630.8 705.2,628.7 705.2,626.2 703.4,625 
	702,624.4 700.7,621.3 699.6,618.5 699,615.3 697.2,616 697.4,612.7 695.9,609.8 697,606.2 696.2,603 695,599.3 694.3,603.2 
	693.4,600.4 691.7,598 692.9,595 691.8,592.3 691.7,591.4 692,588.2 691.4,585.2 690.9,582.6 689.7,579.8 691.3,577.1 689.6,574.4 
	691.1,573.2 690.5,570.7 690.9,569.1 691.4,566 690.5,563.7 689.8,561.4 691.6,559.2 690.3,556.3 690.5,553.4 690.1,550.7 
	690.2,549.1 692,546.6 691.5,543.9 691.7,541.2 691.4,537.8 690.5,534.5 690.9,534.6 690.4,532 690.2,531.1 689.9,530.3 
	690.1,530.9 689.6,528.8 690.6,525.7 690.2,522.5 691.4,519.8 689.7,517.1 690.5,515.1 691.2,510.7 692,508.4 692.7,505.9 
	693.5,503.5 692.7,500.9 692.7,498.4 693.9,495.9 694,492.8 693.7,489 693.7,486.9 693.9,483.5 693.5,480.8 692.4,478 694.8,479.5 
	693.7,477.2 694.7,475.1 696.6,472.8 696.2,469.6 698.5,466.9 701,465.7 699.9,462.4 700.5,460 702.3,457.8 702.2,455 702.4,452.3 
	702.8,449.8 703.5,447.2 705.2,444.8 704.5,441.9 705.7,439.5 705.9,436.8 706.1,433.6 707.8,431.2 709.1,428.4 709.3,425.4 
	708.7,422 708.5,420.8 707.2,417.9 706.4,415.9 706.6,411.9 704.4,409 703.5,405.6 703,402.2 703.7,398.8 704.3,395.6 705.9,392.7 
	707.5,389.8 709.6,387.1 711.9,384.7 713.7,382.8 714.1,380.3 714.4,378 715.8,377 714.7,373.9 715.8,370.9 715.5,369.5 
	716.3,366.4 716.9,363.9 719.2,361.3 718.6,357.6 719.1,357.9 719.1,354.9 719.5,352 718.3,349.3 718.2,346.5 719.1,343.6 
	718,340.8 717.1,338.1 716.7,335.5 716.5,332.5 717.1,329.4 716.2,326.4 715,327.3 716.3,323.9 714.5,320.7 715,317.4 715,314.6 
	714.7,312.5 714.5,310 716,307.5 714.4,304.9 714.4,302.3 714.4,299.1 712.8,296.1 713.2,293.3 712,291 711.6,287.3 709.5,285.4 
	709.8,282.5 706.7,281.3 706.8,278.2 706.4,275.9 704.7,273.3 702.7,272 701.5,269.8 701.3,267.2 699.2,265.7 698.8,261.9 
	697.5,258.4 698.2,256.5 697,254.2 697.7,251.3 696.3,248.6 697.1,245.8 698.1,244 697.2,240 696.8,236.8 697.9,234.2 696.4,231.4 
	697,228.6 697,225.7 697.2,222.8 697,224.4 696.9,224.2 696,220.7 695.9,217 695.2,215 694.7,212.5 695.8,210 695.4,207.6 
	695.9,208.1 696.9,205.4 696.1,202.6 697.1,201.6 698.4,199.3 698.9,196.3 700.4,194.2 700.3,191.5 701.8,187.8 701.3,186.6 
	699.4,185.7 700.8,182 699,181.5 699.9,180.3 700,177.5 698.4,174.6 699.1,171.7 697.5,169.4 696.4,167 695.6,164.4 695.3,161.5 
	694,159.1 695.8,156.5 694.2,154.1 695,151.7 694.8,148.5 695.2,145.1 692.9,142.5 693,139.6 690.5,137.8 690.5,135 688.9,132.6 
	689.9,129.6 689.1,127.4 689,124.6 690.2,121.8 692.1,120.1 693.3,117.6 693,114.9 693.2,112.5 692.4,109.8 693.6,107.5 
	693.9,104.9 695,103.3 695.6,101.2 698.4,99.1 699.5,95.3 700.2,92.4 699.6,89.5 699.4,86 699.2,82.5 700.6,80.1 700.8,77.6 
	701.8,74.3 700.5,70.9 702.5,67.7 702.3,64.4 702.7,65.6 704.1,62.6 703.2,59.7 704.6,57 704.4,56.6 704.3,56.8 704.4,56.5 
	703.7,54 705.7,53.9 "/>
</svg>
