<svg xmlns="http://www.w3.org/2000/svg" viewBox="0 0 500 500"><defs><style>.cls-1{fill:#03682e;}.cls-2{fill:#d4af37;}.cls-3{fill:#111;}.cls-4,.cls-6{fill:#fff;}.cls-4,.cls-5{opacity:0.9;}.cls-5{fill:none;stroke:#fff;stroke-miterlimit:10;stroke-width:2.5px;}.cls-6{font-size:36px;font-family:Avenir-Medium, Avenir;}</style></defs><title>Artboard 1</title><g id="base"><path class="cls-1" d="M431.76,136.08c1.4-6.34,8.61-10.57,18.24-11.68V50H50v75c11.53-.39,20.82,3.7,22.36,10.62,1.83,8.26-8.06,17.54-22.36,21.31V450H450V157.73C437.77,152.69,430,144,431.76,136.08Z"/></g><g id="screws"><circle id="topleft" class="cls-2" cx="72" cy="72" r="5"/><circle id="topright" class="cls-2" cx="432" cy="72" r="5"/><circle id="bottomright" class="cls-2" cx="432" cy="426" r="5"/><circle id="bottomleft" class="cls-2" cx="72" cy="426" r="5"/></g><g id="Layer_5" data-name="Layer 5"><rect class="cls-3" x="100" y="82" width="300" height="325"/></g><g id="label"><rect class="cls-4" x="146" y="322.14" width="208" height="2" rx="1" ry="1"/><path id="dog-brand" class="cls-5" d="M245.23,217.76c-4.13-4.7-12.24-12.6-20.31-11.5-17.12,2.32-25,43.93-16.25,47.79,3.44,1.53,11.77-1.82,34.52-27.43,2.57,11,6.53,23.82,11.68,23.89,2.46,0,4.56-2.83,9.14-12.39,12.08-25.23,20.16-42.1,11.17-50.88-1.06-1-3.15-3.08-5.08-2.65-7.28,1.6-3.43,36.58,1.52,68.58,2.1-7.24,9.36-30.94,16.75-30.53,7.23.4,11.42,23.72,11.68,25.22,1.49,8.61,2.41,13.93,0,20.35-6.5,17.3-29.74,22.74-36.55,24.34-3.74.88-16.61,3.89-19.29,0-1.7-2.47.91-7.39,5.08-9.73a13,13,0,0,1,12.69,0c4.16,2.46,6.61,8.28,4.55,10.91-5.14,6.55-43.74.07-63.87-22.33-10.79-12-12.58-27.26-14.15-37.67-1.42-9.41-1-16.55-.66-24a168.46,168.46,0,0,1,8.12-43c5.78-18,12.72-39.49,20.65-39.5,9.27,0,16.32,33.26,18.16,42.49A82.93,82.93,0,0,1,245.5,168a84.43,84.43,0,0,1,20.46.68q9.92-40.56,19.5-40.5,13.61.09,26.54,82.09a172.78,172.78,0,0,1,.42,17.91,174.21,174.21,0,0,1-4,32.5"/><text class="cls-6" transform="translate(145.98 369.14)">back in a bit!</text></g></svg>